<svg xmlns="http://www.w3.org/2000/svg" viewBox="0 0 600 400" width="600" height="400">
  <rect width="600" height="400" fill="#0a0a0f"/>
  <text x="300" y="36" font-size="15" fill="#6b6b80" text-anchor="middle" font-family="monospace" letter-spacing="2">WHICH SIDE HAS MORE DOTS?</text>
  <text x="300" y="56" font-size="12" fill="#3a3a4a" text-anchor="middle" font-family="monospace">(decide instantly — first impression only)</text>

  <text x="150" y="95" font-size="13" fill="#d4a017" text-anchor="middle" font-family="monospace">A</text>
  <circle cx="108" cy="130" r="10" fill="#e8e8f0"/>
  <circle cx="145" cy="115" r="10" fill="#e8e8f0"/>
  <circle cx="185" cy="125" r="10" fill="#e8e8f0"/>
  <circle cx="118" cy="165" r="10" fill="#e8e8f0"/>
  <circle cx="165" cy="158" r="10" fill="#e8e8f0"/>
  <circle cx="200" cy="145" r="10" fill="#e8e8f0"/>
  <circle cx="130" cy="200" r="10" fill="#e8e8f0"/>
  <circle cx="175" cy="195" r="10" fill="#e8e8f0"/>
  <circle cx="108" cy="235" r="10" fill="#e8e8f0"/>
  <circle cx="150" cy="240" r="10" fill="#e8e8f0"/>
  <circle cx="190" cy="228" r="10" fill="#e8e8f0"/>
  <circle cx="125" cy="270" r="10" fill="#e8e8f0"/>
  <circle cx="168" cy="265" r="10" fill="#e8e8f0"/>
  <circle cx="205" cy="275" r="10" fill="#e8e8f0"/>
  <circle cx="145" cy="305" r="10" fill="#e8e8f0"/>
  <circle cx="185" cy="300" r="10" fill="#e8e8f0"/>

  <line x1="300" y1="70" x2="300" y2="330" stroke="#2a2a3a" stroke-width="1.5"/>

  <text x="450" y="95" font-size="13" fill="#d4a017" text-anchor="middle" font-family="monospace">B</text>
  <circle cx="345" cy="135" r="14" fill="#c0392b"/>
  <circle cx="395" cy="120" r="14" fill="#c0392b"/>
  <circle cx="445" cy="138" r="14" fill="#c0392b"/>
  <circle cx="490" cy="125" r="14" fill="#c0392b"/>
  <circle cx="355" cy="195" r="14" fill="#c0392b"/>
  <circle cx="410" cy="180" r="14" fill="#c0392b"/>
  <circle cx="465" cy="195" r="14" fill="#c0392b"/>
  <circle cx="370" cy="255" r="14" fill="#c0392b"/>
  <circle cx="430" cy="248" r="14" fill="#c0392b"/>
  <circle cx="485" cy="260" r="14" fill="#c0392b"/>
  <circle cx="355" cy="308" r="14" fill="#c0392b"/>
  <circle cx="418" cy="300" r="14" fill="#c0392b"/>
  <circle cx="475" cy="312" r="14" fill="#c0392b"/>

  <text x="300" y="370" font-size="12" fill="#3a3a4a" text-anchor="middle" font-family="monospace">HOUSE OF TRIALS</text>
</svg>
