<svg xmlns="http://www.w3.org/2000/svg" viewBox="0 0 600 400" width="600" height="400">
  <rect width="600" height="400" fill="#0a0a0f"/>
  <text x="300" y="36" font-size="15" fill="#6b6b80" text-anchor="middle" font-family="monospace" letter-spacing="2">ARE THE FOUR RED LINES PARALLEL?</text>

  <line x1="80" y1="80"  x2="520" y2="80"  stroke="#c0392b" stroke-width="3"/>
  <line x1="80" y1="170" x2="520" y2="170" stroke="#c0392b" stroke-width="3"/>
  <line x1="80" y1="260" x2="520" y2="260" stroke="#c0392b" stroke-width="3"/>
  <line x1="80" y1="350" x2="520" y2="350" stroke="#c0392b" stroke-width="3"/>

  <g stroke="#6b6b80" stroke-width="1.5">
    <line x1="110" y1="55"  x2="150" y2="105"/>
    <line x1="150" y1="55"  x2="190" y2="105"/>
    <line x1="190" y1="55"  x2="230" y2="105"/>
    <line x1="230" y1="55"  x2="270" y2="105"/>
    <line x1="270" y1="55"  x2="310" y2="105"/>
    <line x1="310" y1="55"  x2="350" y2="105"/>
    <line x1="350" y1="55"  x2="390" y2="105"/>
    <line x1="390" y1="55"  x2="430" y2="105"/>
    <line x1="430" y1="55"  x2="470" y2="105"/>
    <line x1="110" y1="145" x2="150" y2="195"/>
    <line x1="150" y1="145" x2="190" y2="195"/>
    <line x1="190" y1="145" x2="230" y2="195"/>
    <line x1="230" y1="145" x2="270" y2="195"/>
    <line x1="270" y1="145" x2="310" y2="195"/>
    <line x1="310" y1="145" x2="350" y2="195"/>
    <line x1="350" y1="145" x2="390" y2="195"/>
    <line x1="390" y1="145" x2="430" y2="195"/>
    <line x1="430" y1="145" x2="470" y2="195"/>
    <line x1="110" y1="235" x2="150" y2="285"/>
    <line x1="150" y1="235" x2="190" y2="285"/>
    <line x1="190" y1="235" x2="230" y2="285"/>
    <line x1="230" y1="235" x2="270" y2="285"/>
    <line x1="270" y1="235" x2="310" y2="285"/>
    <line x1="310" y1="235" x2="350" y2="285"/>
    <line x1="350" y1="235" x2="390" y2="285"/>
    <line x1="390" y1="235" x2="430" y2="285"/>
    <line x1="430" y1="235" x2="470" y2="285"/>
    <line x1="110" y1="325" x2="150" y2="375"/>
    <line x1="150" y1="325" x2="190" y2="375"/>
    <line x1="190" y1="325" x2="230" y2="375"/>
    <line x1="230" y1="325" x2="270" y2="375"/>
    <line x1="270" y1="325" x2="310" y2="375"/>
    <line x1="310" y1="325" x2="350" y2="375"/>
    <line x1="350" y1="325" x2="390" y2="375"/>
    <line x1="390" y1="325" x2="430" y2="375"/>
    <line x1="430" y1="325" x2="470" y2="375"/>
  </g>

  <rect x="60" y="358" width="480" height="30" fill="#0a0a0f"/>
  <text x="170" y="390" font-size="18" fill="#d4a017" font-family="monospace" font-weight="bold">A: YES</text>
  <text x="380" y="390" font-size="18" fill="#d4a017" font-family="monospace" font-weight="bold">B: NO</text>
</svg>
